<svg width="168" height="32" viewBox="0 0 168 32" fill="currentColor" xmlns="http://www.w3.org/2000/svg">
    <path d="M23.3383 5.79915C23.3387 5.79947 23.3392 5.79979 23.3396 5.80011V5.79782L23.3383 5.79915ZM16.3624 3.43782C18.8713 3.51076 21.3009 4.33319 23.3383 5.79915L21.9476 7.19211C21.7883 7.35193 21.6798 7.55534 21.636 7.7767C21.5921 7.99806 21.6147 8.22746 21.701 8.43598C21.7873 8.6445 21.9334 8.8228 22.1208 8.94841C22.3083 9.07403 22.5288 9.14132 22.7545 9.14182H27.9956C28.2987 9.14182 28.5894 9.02141 28.8037 8.80709C29.0181 8.59276 29.1385 8.30207 29.1385 7.99897V2.75782C29.1384 2.53169 29.0713 2.31064 28.9456 2.12268C28.8198 1.93471 28.6412 1.78827 28.4322 1.70188C28.2232 1.6155 27.9933 1.59305 27.7715 1.63739C27.5498 1.68173 27.3462 1.79086 27.1865 1.95097L25.7876 3.34982C23.2228 1.3653 20.1154 0.207114 16.8774 0.0287867C13.6394 -0.149541 10.4237 0.660413 7.65646 2.35128C4.88924 4.04215 2.70124 6.53409 1.3825 9.49676C0.0637506 12.4594 -0.323464 15.7529 0.27218 18.9407C0.362437 19.3814 0.622289 19.7689 0.995692 20.0197C1.36909 20.2706 1.82613 20.3646 2.26822 20.2815C2.71031 20.1984 3.10203 19.9449 3.3589 19.5756C3.61577 19.2064 3.7172 18.7509 3.64132 18.3075C3.18075 15.8396 3.46978 13.2903 4.47115 10.9882C5.47253 8.68601 7.14037 6.73647 9.25975 5.39076C11.3791 4.04506 13.8529 3.36486 16.3624 3.43782ZM31.0033 11.9591C30.6278 11.7028 30.1658 11.6061 29.719 11.6904H29.7213C29.4997 11.7316 29.2884 11.8161 29.0994 11.9391C28.9105 12.0621 28.7477 12.2211 28.6203 12.4071C28.4929 12.5931 28.4035 12.8023 28.3571 13.0229C28.3107 13.2436 28.3082 13.4711 28.3499 13.6927C28.8105 16.1606 28.5214 18.7099 27.5201 21.012C26.5187 23.3142 24.8508 25.2638 22.7315 26.6095C20.6121 27.9552 18.1383 28.6354 15.6288 28.5624C13.1193 28.4894 10.6892 27.6667 8.65161 26.2001L10.0459 24.8081C10.2061 24.6483 10.3153 24.4445 10.3596 24.2225C10.4038 24.0005 10.3812 23.7704 10.2945 23.5613C10.2079 23.3523 10.0611 23.1736 9.87276 23.0481C9.68444 22.9225 9.46308 22.8557 9.23675 22.8561H3.99561C3.6925 22.8561 3.40181 22.9765 3.18749 23.1908C2.97316 23.4052 2.85275 23.6959 2.85275 23.999V29.2401C2.85235 29.4664 2.91915 29.6878 3.0447 29.8761C3.17026 30.0644 3.3489 30.2112 3.55798 30.2979C3.76706 30.3846 3.99717 30.4072 4.21913 30.3629C4.44109 30.3187 4.64491 30.2095 4.80475 30.0493L6.20361 28.6481C8.76836 30.6335 11.876 31.7923 15.1144 31.9711C18.3529 32.1499 21.5692 31.3401 24.3369 29.6491C27.1046 27.958 29.2929 25.4657 30.6117 22.5026C31.9305 19.5394 32.3175 16.2454 31.7213 13.0573C31.637 12.6105 31.3788 12.2155 31.0033 11.9591ZM19.1632 13.8825C19.3355 13.4665 19.4242 13.0206 19.4242 12.5704C19.4242 11.6611 19.063 10.789 18.42 10.146C17.777 9.50305 16.9049 9.14182 15.9956 9.14182C15.0863 9.14182 14.2142 9.50305 13.5712 10.146C12.9283 10.789 12.567 11.6611 12.567 12.5704C12.567 13.0206 12.6557 13.4665 12.828 13.8825C13.0003 14.2984 13.2529 14.6764 13.5712 14.9948C13.8896 15.3131 14.2676 15.5657 14.6835 15.738C15.0995 15.9103 15.5454 15.999 15.9956 15.999C16.4459 15.999 16.8917 15.9103 17.3077 15.738C17.7236 15.5657 18.1016 15.3131 18.42 14.9948C18.7383 14.6764 18.9909 14.2984 19.1632 13.8825ZM12.7218 18.0298C13.7266 17.484 14.8521 17.1984 15.9956 17.199C17.1392 17.1982 18.2647 17.4837 19.2696 18.0295C20.2745 18.5753 21.1268 19.3639 21.7487 20.3235C22.1785 20.9864 21.6345 21.7704 20.8459 21.7704H11.1453C10.3567 21.7704 9.81275 20.9864 10.2425 20.3235C10.8646 19.3641 11.7169 18.5755 12.7218 18.0298ZM55.7882 9.62255C56.3914 10.0667 56.7328 10.6898 56.8124 11.4919H60.9388C60.9189 10.2788 60.5941 9.21156 59.9644 8.29016C59.3346 7.36876 58.453 6.64953 57.3195 6.13249C56.1926 5.61544 54.8734 5.35692 53.3621 5.35692C51.8772 5.35692 50.5515 5.61544 49.3848 6.13249C48.2181 6.64953 47.3001 7.36876 46.6305 8.29016C45.9677 9.21156 45.6395 10.2887 45.6462 11.5217C45.6395 13.0264 46.1334 14.2229 47.1277 15.1112C48.122 15.9994 49.4776 16.6524 51.1945 17.07L53.4118 17.6268C54.1542 17.8058 54.7806 18.0046 55.2911 18.2234C55.8081 18.4421 56.1992 18.7073 56.4644 19.0189C56.7361 19.3304 56.872 19.7149 56.872 20.1723C56.872 20.6628 56.7229 21.097 56.4246 21.4748C56.1263 21.8527 55.7054 22.1476 55.1618 22.3598C54.6249 22.5719 53.9918 22.6779 53.2626 22.6779C52.5202 22.6779 51.854 22.5653 51.2641 22.3399C50.6807 22.1079 50.2134 21.7665 49.8621 21.3157C49.5174 20.8583 49.3218 20.2883 49.2754 19.6055H45.1092C45.1424 21.0705 45.497 22.3001 46.1732 23.2944C46.8559 24.2821 47.8038 25.0278 49.0169 25.5316C50.2366 26.0354 51.6684 26.2873 53.3124 26.2873C54.9696 26.2873 56.3848 26.0387 57.5581 25.5416C58.738 25.0378 59.6395 24.3318 60.2626 23.4237C60.8924 22.5089 61.2106 21.4284 61.2172 20.1822C61.2106 19.3337 61.0548 18.5814 60.7499 17.9251C60.4516 17.2689 60.0306 16.6988 59.4871 16.2149C58.9435 15.731 58.3005 15.3233 57.5581 14.9919C56.8157 14.6604 56.0003 14.3953 55.1121 14.1964L53.2825 13.7589C52.8384 13.6595 52.4208 13.5402 52.0297 13.401C51.6386 13.2551 51.2939 13.0861 50.9956 12.8939C50.6973 12.695 50.462 12.4597 50.2896 12.1879C50.1239 11.9161 50.0477 11.5979 50.0609 11.2333C50.0609 10.7958 50.1869 10.4047 50.4388 10.06C50.6973 9.71535 51.0685 9.44688 51.5524 9.25465C52.0363 9.05578 52.6296 8.95635 53.3322 8.95635C54.3663 8.95635 55.185 9.17842 55.7882 9.62255ZM65.1373 31.597C65.6079 31.6832 66.1117 31.7262 66.6487 31.7262C67.696 31.7262 68.5909 31.5572 69.3333 31.2191C70.0757 30.8877 70.6889 30.4137 71.1728 29.7973C71.6633 29.1874 72.0511 28.4715 72.3362 27.6495L78.2722 10.7262H73.7879L70.5961 21.9421H70.437L67.2751 10.7262H62.8205L68.2992 26.4365L68.0506 27.0828C67.865 27.56 67.6231 27.8981 67.3248 28.097C67.0331 28.2958 66.6851 28.3886 66.2808 28.3754C65.883 28.3621 65.4356 28.2793 64.9384 28.1268L63.9839 31.2887C64.2888 31.4147 64.6733 31.5174 65.1373 31.597ZM84.6756 25.999V17.1694C84.6823 16.5132 84.8049 15.953 85.0435 15.489C85.2888 15.0184 85.6269 14.6604 86.0577 14.4152C86.4952 14.1699 86.999 14.0473 87.5691 14.0473C88.4176 14.0473 89.0838 14.3124 89.5677 14.8427C90.0516 15.3664 90.2902 16.0956 90.2836 17.0302V25.999H94.5194V16.2745C94.5194 15.088 94.3006 14.0671 93.8631 13.212C93.4256 12.3503 92.8125 11.6874 92.0237 11.2234C91.2348 10.7594 90.3101 10.5274 89.2495 10.5274C88.116 10.5274 87.1515 10.7892 86.356 11.3129C85.5606 11.8299 84.9938 12.5326 84.6558 13.4208H84.4768V10.7262H80.4398V25.999H84.6756ZM100.721 25.3029C101.848 25.9658 103.194 26.2973 104.758 26.2973C106.117 26.2973 107.294 26.0487 108.288 25.5515C109.283 25.0544 110.061 24.365 110.625 23.4833C111.195 22.5951 111.513 21.5676 111.579 20.401H107.582C107.503 20.9379 107.334 21.3986 107.075 21.7831C106.823 22.1609 106.502 22.4493 106.111 22.6481C105.726 22.847 105.292 22.9464 104.808 22.9464C104.152 22.9464 103.578 22.7674 103.088 22.4095C102.597 22.0515 102.216 21.5312 101.944 20.8484C101.679 20.1656 101.547 19.337 101.547 18.3626C101.547 17.4014 101.683 16.5828 101.954 15.9066C102.226 15.2305 102.604 14.7168 103.088 14.3654C103.578 14.0075 104.152 13.8285 104.808 13.8285C105.584 13.8285 106.21 14.0638 106.687 14.5345C107.171 14.9985 107.47 15.6117 107.582 16.374H111.579C111.52 15.194 111.198 14.1666 110.615 13.2916C110.032 12.4166 109.239 11.7371 108.238 11.2532C107.238 10.7693 106.071 10.5274 104.738 10.5274C103.194 10.5274 101.862 10.8621 100.741 11.5316C99.6211 12.1945 98.756 13.1192 98.1462 14.3058C97.5429 15.4857 97.2413 16.8579 97.2413 18.4223C97.2413 19.9668 97.5396 21.3323 98.1362 22.5189C98.7394 23.7054 99.6012 24.6334 100.721 25.3029ZM116.767 25.3527C117.709 25.9493 118.759 26.2475 119.919 26.2475C120.741 26.2475 121.437 26.1117 122.007 25.8399C122.584 25.5681 123.051 25.2267 123.409 24.8157C123.774 24.3981 124.056 23.9772 124.254 23.5529H124.433V25.999H128.61V5.63533H124.384V13.2916H124.254C124.069 12.8806 123.797 12.463 123.439 12.0387C123.088 11.6079 122.624 11.2499 122.047 10.9649C121.477 10.6732 120.764 10.5274 119.909 10.5274C118.789 10.5274 117.758 10.819 116.817 11.4024C115.882 11.9791 115.133 12.8508 114.57 14.0174C114.006 15.1775 113.725 16.6325 113.725 18.3825C113.725 20.0861 113.996 21.5245 114.54 22.6978C115.09 23.8645 115.833 24.7494 116.767 25.3527ZM122.992 22.32C122.521 22.6912 121.944 22.8768 121.262 22.8768C120.566 22.8768 119.979 22.6879 119.502 22.31C119.031 21.9256 118.67 21.3953 118.418 20.7191C118.173 20.0364 118.05 19.2509 118.05 18.3626C118.05 17.481 118.173 16.7054 118.418 16.0359C118.663 15.3664 119.024 14.8427 119.502 14.4649C119.979 14.087 120.566 13.8981 121.262 13.8981C121.944 13.8981 122.524 14.0804 123.002 14.445C123.479 14.8096 123.843 15.3266 124.095 15.9961C124.347 16.6656 124.473 17.4545 124.473 18.3626C124.473 19.2707 124.344 20.0629 124.085 20.739C123.834 21.4152 123.469 21.9421 122.992 22.32ZM149.055 5.63533H144.75V18.4919C144.75 19.2674 144.577 19.9568 144.233 20.56C143.895 21.1633 143.414 21.6372 142.791 21.9819C142.175 22.3266 141.449 22.499 140.613 22.499C139.785 22.499 139.059 22.3266 138.436 21.9819C137.813 21.6372 137.329 21.1633 136.984 20.56C136.646 19.9568 136.477 19.2674 136.477 18.4919V5.63533H132.172V18.8598C132.172 20.3446 132.523 21.6439 133.226 22.7575C133.928 23.8711 134.913 24.7395 136.179 25.3626C137.445 25.9791 138.923 26.2873 140.613 26.2873C142.297 26.2873 143.772 25.9791 145.038 25.3626C146.304 24.7395 147.289 23.8711 147.991 22.7575C148.701 21.6439 149.055 20.3446 149.055 18.8598V5.63533ZM152.518 10.7262V31.7262H156.754V23.5529H156.883C157.075 23.9772 157.354 24.3981 157.718 24.8157C158.083 25.2267 158.55 25.5681 159.12 25.8399C159.697 26.1117 160.396 26.2475 161.218 26.2475C162.378 26.2475 163.426 25.9493 164.36 25.3527C165.302 24.7494 166.044 23.8645 166.588 22.6978C167.138 21.5245 167.413 20.0861 167.413 18.3825C167.413 16.6325 167.131 15.1775 166.568 14.0174C166.004 12.8508 165.252 11.9791 164.311 11.4024C163.369 10.819 162.342 10.5274 161.228 10.5274C160.373 10.5274 159.657 10.6732 159.08 10.9649C158.51 11.2499 158.046 11.6079 157.688 12.0387C157.337 12.463 157.069 12.8806 156.883 13.2916H156.694V10.7262H152.518ZM157.042 20.739C156.79 20.0629 156.664 19.2707 156.664 18.3626C156.664 17.4545 156.79 16.6656 157.042 15.9961C157.294 15.3266 157.655 14.8096 158.126 14.445C158.603 14.0804 159.187 13.8981 159.876 13.8981C160.572 13.8981 161.159 14.087 161.636 14.4649C162.113 14.8427 162.474 15.3664 162.72 16.0359C162.965 16.7054 163.088 17.481 163.088 18.3626C163.088 19.2509 162.962 20.0364 162.71 20.7191C162.464 21.3953 162.103 21.9256 161.626 22.31C161.149 22.6879 160.565 22.8768 159.876 22.8768C159.193 22.8768 158.613 22.6912 158.136 22.32C157.659 21.9421 157.294 21.4152 157.042 20.739Z"/>
</svg>
